<svg width="32.000000" height="32.000000" viewBox="0 0 32 32" fill="none" xmlns="http://www.w3.org/2000/svg" xmlns:xlink="http://www.w3.org/1999/xlink">
	<desc>
			Created with Pixso.
	</desc>
	<defs/>
	<rect id="Bag" width="32.000000" height="32.000000" fill="#FFFFFF" fill-opacity="0"/>
	<path id="Vector" d="M27 9C27.55 9 28 9.44 28 10L28 26C28 26.55 27.55 27 27 27L5 27C4.44 27 4 26.55 4 26L4 10C4 9.44 4.44 9 5 9L27 9Z" stroke="#FFFFFF" stroke-opacity="1.000000" stroke-width="1.500000" stroke-linejoin="round"/>
	<path id="Vector" d="M11 13L11 9C11 7.67 11.52 6.4 12.46 5.46C13.4 4.52 14.67 4 16 4C17.32 4 18.59 4.52 19.53 5.46C20.47 6.4 21 7.67 21 9L21 13" stroke="#FFFFFF" stroke-opacity="1.000000" stroke-width="1.500000" stroke-linejoin="round" stroke-linecap="round"/>
</svg>
