<svg width="32.000000" height="32.000000" viewBox="0 0 32 32" fill="none" xmlns="http://www.w3.org/2000/svg" xmlns:xlink="http://www.w3.org/1999/xlink">
	<defs/>
	<path id="Vector" d="M5.02 16.98L5 17C4.43 17 4 16.56 4 16C4 15.43 4.43 15 5 15L5.02 15.02L5.02 16.98ZM26.98 15.02L27 15C27.56 15 28 15.43 28 16C28 16.56 27.56 17 27 17L26.98 16.98L26.98 15.02Z" fill="#111318" fill-opacity="1.000000" fill-rule="nonzero"/>
	<path id="Vector" d="M5 16L27 16" stroke="#ffffff" stroke-opacity="1.000000" stroke-width="2.000000" stroke-linejoin="round" stroke-linecap="round"/>
	<path id="Vector" d="M5.02 8.97L5 9C4.43 9 4 8.56 4 8C4 7.43 4.43 7 5 7L5.02 7.02L5.02 8.97ZM22.98 7.02L23 7C23.56 7 24 7.43 24 8C24 8.56 23.56 9 23 9L22.98 8.97L22.98 7.02Z" fill="#111318" fill-opacity="1.000000" fill-rule="nonzero"/>
	<path id="Vector" d="M5 8L23 8" stroke="#ffffff" stroke-opacity="1.000000" stroke-width="2.000000" stroke-linejoin="round" stroke-linecap="round"/>
	<path id="Vector" d="M5.02 24.98L5 25C4.43 25 4 24.56 4 24C4 23.43 4.43 23 5 23L5.02 23.02L5.02 24.98ZM22.98 23.02L23 23C23.56 23 24 23.43 24 24C24 24.56 23.56 25 23 25L22.98 24.98L22.98 23.02Z" fill="#111318" fill-opacity="1.000000" fill-rule="nonzero"/>
	<path id="Vector" d="M5 24L23 24" stroke="#ffffff" stroke-opacity="1.000000" stroke-width="2.000000" stroke-linejoin="round" stroke-linecap="round"/>
</svg>
